<mxfile host="app.diagrams.net" modified="2023-07-21T02:17:41.561Z" agent="Mozilla/5.0 (Windows NT 10.0; Win64; x64) AppleWebKit/537.36 (KHTML, like Gecko) Chrome/114.0.0.0 Safari/537.36 Edg/114.0.1823.79" etag="0YhZaUz7SYaMvX2KfNQs" version="21.5.2" type="github">
  <diagram name="第 1 页" id="V4pFqVaF3Z6AIUGnJDuK">
    <mxGraphModel dx="899" dy="655" grid="1" gridSize="10" guides="1" tooltips="1" connect="1" arrows="1" fold="1" page="1" pageScale="1" pageWidth="827" pageHeight="1169" math="0" shadow="0">
      <root>
        <mxCell id="0" />
        <mxCell id="1" parent="0" />
        <mxCell id="aus9-SElf8DxYrUYnped-1" value="赋值订阅信息" style="rounded=0;whiteSpace=wrap;html=1;" vertex="1" parent="1">
          <mxGeometry x="230" y="150" width="120" height="60" as="geometry" />
        </mxCell>
        <mxCell id="aus9-SElf8DxYrUYnped-2" value="启动重平衡" style="rounded=0;whiteSpace=wrap;html=1;" vertex="1" parent="1">
          <mxGeometry x="230" y="280" width="120" height="60" as="geometry" />
        </mxCell>
        <mxCell id="aus9-SElf8DxYrUYnped-3" value="更新路由信息" style="rounded=0;whiteSpace=wrap;html=1;" vertex="1" parent="1">
          <mxGeometry x="230" y="400" width="120" height="60" as="geometry" />
        </mxCell>
        <mxCell id="aus9-SElf8DxYrUYnped-5" style="edgeStyle=orthogonalEdgeStyle;rounded=0;orthogonalLoop=1;jettySize=auto;html=1;exitX=1;exitY=0.5;exitDx=0;exitDy=0;entryX=1;entryY=0.5;entryDx=0;entryDy=0;" edge="1" parent="1" source="aus9-SElf8DxYrUYnped-4" target="aus9-SElf8DxYrUYnped-2">
          <mxGeometry relative="1" as="geometry">
            <Array as="points">
              <mxPoint x="440" y="540" />
              <mxPoint x="440" y="310" />
            </Array>
          </mxGeometry>
        </mxCell>
        <mxCell id="aus9-SElf8DxYrUYnped-6" value="立即唤醒" style="edgeLabel;html=1;align=center;verticalAlign=middle;resizable=0;points=[];" vertex="1" connectable="0" parent="aus9-SElf8DxYrUYnped-5">
          <mxGeometry x="0.0098" y="3" relative="1" as="geometry">
            <mxPoint as="offset" />
          </mxGeometry>
        </mxCell>
        <mxCell id="aus9-SElf8DxYrUYnped-4" value="向Broker发送心跳" style="rounded=0;whiteSpace=wrap;html=1;" vertex="1" parent="1">
          <mxGeometry x="230" y="510" width="120" height="60" as="geometry" />
        </mxCell>
      </root>
    </mxGraphModel>
  </diagram>
</mxfile>
